<svg xmlns="http://www.w3.org/2000/svg" version="1.1" xmlns:xlink="http://www.w3.org/1999/xlink" xmlns:svgjs="http://svgjs.dev/svgjs" width="2000" height="1247" viewBox="0 0 2000 1247"><g transform="matrix(1,0,0,1,-1.2121212121212466,0.504858299595071)"><svg viewBox="0 0 396 247" data-background-color="#f5f6f8" preserveAspectRatio="xMidYMid meet" height="1247" width="2000" xmlns="http://www.w3.org/2000/svg" xmlns:xlink="http://www.w3.org/1999/xlink"><g id="tight-bounds" transform="matrix(1,0,0,1,0.2400000000000091,-0.09999999999999432)"><svg viewBox="0 0 395.52 247.2" height="247.2" width="395.52"><g><svg></svg></g><g><svg viewBox="0 0 395.52 247.2" height="247.2" width="395.52"><mask id="b00df430-ef7f-458d-bc13-3113221dadfb"><rect width="395.52" height="247.2" fill="white"></rect><g transform="matrix(1,0,0,1,27.79071161048688,37.08)" id="clone"><svg viewBox="0 0 339.9385767790262 173.04" height="173.04" width="339.9385767790262"><g><svg viewBox="0 0 339.9385767790262 173.04" height="173.04" width="339.9385767790262"><g><svg viewBox="0 0 339.9385767790262 173.04" height="173.04" width="339.9385767790262"><g><svg viewBox="0 0 339.9385767790262 173.04" height="173.04" width="339.9385767790262"><g id="SvgjsG1362"><svg viewBox="0 0 339.9385767790262 173.04" height="173.04" width="339.9385767790262" id="SvgjsSvg1361"><g><svg viewBox="0 0 339.9385767790262 173.04" height="173.04" width="339.9385767790262"><g transform="matrix(1,0,0,1,0,0)"><svg width="339.9385767790262" viewBox="-3 -46.95 105.90476075776 54.400000000000006" height="173.04" data-palette-color="url(#69cee333-3b63-4a5a-b066-5bdc2a25e568)"><path d="M26.15-10.5L26.15-37.55Q26.15-39.95 29.1-39.95L29.1-39.95Q32.05-39.95 32.05-37.55L32.05-37.55 32.05-3.05Q32.05-1.3 30.2-0.5L30.2-0.5 30.25-0.5Q29.45-0.15 28.55 0.05 27.65 0.25 26.8 0.25L26.8 0.25Q26.15 0.25 25.45 0.13 24.75 0 24.13-0.28 23.5-0.55 22.98-1.03 22.45-1.5 22.15-2.2L22.15-2.2 11.3-29.25 9.95-29.1 9.95-2.1Q9.95 0.3 6.95 0.3L6.95 0.3Q4 0.3 4-2.1L4-2.1 4-36.55Q4-38.6 5.8-39.3L5.8-39.3Q7.45-39.95 9.3-39.95L9.3-39.95Q10.6-39.95 11.93-39.43 13.25-38.9 13.95-37.45L13.95-37.45 24.75-10.35 26.15-10.5ZM63.65-1.2L52.65-34.8 41.7-1.2 41.7-1.25Q41.4-0.5 40.87-0.03 40.35 0.45 39.6 0.45L39.6 0.45Q39.2 0.45 38.82 0.38 38.45 0.3 38.05 0.2L38.05 0.2 38.1 0.2Q35.25-0.7 36-3L36-3 47.4-37.65Q47.65-38.45 48.27-39 48.9-39.55 49.75-39.65L49.75-39.65Q50.6-39.8 51.4-39.88 52.2-39.95 52.65-39.95L52.65-39.95Q53.1-39.95 53.9-39.88 54.7-39.8 55.55-39.7L55.55-39.7Q56.25-39.6 56.92-38.95 57.6-38.3 57.95-37.65L57.95-37.65Q60.75-29.05 63.62-20.33 66.5-11.6 69.3-3L69.3-3Q70-0.7 67.2 0.2L67.2 0.2Q66.8 0.3 66.47 0.38 66.15 0.45 65.75 0.45L65.75 0.45Q65.05 0.45 64.47-0.03 63.9-0.5 63.65-1.25L63.65-1.25 63.65-1.2ZM56.4-12L56.4-12Q56.4-10.4 55.27-9.28 54.15-8.15 52.55-8.15L52.55-8.15Q50.95-8.15 49.85-9.28 48.75-10.4 48.75-12L48.75-12Q48.75-13.6 49.85-14.73 50.95-15.85 52.55-15.85L52.55-15.85Q54.15-15.85 55.27-14.73 56.4-13.6 56.4-12ZM79.75-34.65L79.75-2.1Q79.75 0.3 76.8 0.3L76.8 0.3Q73.85 0.3 73.85-2.1L73.85-2.1 73.85-36.7Q73.85-37.85 74.5-38.78 75.15-39.7 77-39.7L77-39.7 94-39.7Q95.8-39.7 95.9-37.2L95.9-37.2Q96-34.65 94-34.65L94-34.65 79.75-34.65ZM92.55-20.65L92.55-20.65Q92.55-19.8 92.22-19.03 91.9-18.25 91.32-17.7 90.75-17.15 90-16.82 89.25-16.5 88.35-16.5L88.35-16.5Q86.65-16.5 85.45-17.7 84.25-18.9 84.25-20.65L84.25-20.65Q84.25-22.4 85.45-23.6 86.65-24.8 88.35-24.8L88.35-24.8Q89.25-24.8 90-24.48 90.75-24.15 91.32-23.58 91.9-23 92.22-22.25 92.55-21.5 92.55-20.65Z" opacity="1" transform="matrix(1,0,0,1,0,0)" fill="black" class="wordmark-text-0" id="SvgjsPath1360" stroke-width="13" stroke="black" stroke-linejoin="round"></path></svg></g></svg></g></svg></g></svg></g></svg></g></svg></g></svg></g></mask><g mask="url(#b00df430-ef7f-458d-bc13-3113221dadfb)"><g><path d="M247.661 180.871v-166.131c0-9.827 6.039-14.74 18.117-14.74v0c12.079 0 18.118 4.913 18.118 14.74v0 211.886c0 7.165-3.787 12.386-11.362 15.661v0h0.307c-3.276 1.433-6.756 2.559-10.441 3.378-3.685 0.819-7.268 1.228-10.747 1.228v0c-2.661 0-5.425-0.246-8.292-0.737-2.866-0.532-5.568-1.372-8.106-2.518-2.579-1.105-4.934-2.641-7.063-4.606-2.17-1.924-3.869-4.32-5.098-7.186v0l-66.636-166.131-8.292 0.922v165.823c0 9.827-6.142 14.74-18.424 14.74v0c-12.079 0-18.118-4.913-18.118-14.74v0-211.579c0-8.394 3.685-14.023 11.055-16.889v0c6.756-2.661 13.921-3.992 21.495-3.992v0c5.323 0 10.707 1.065 16.153 3.194 5.405 2.17 9.54 6.223 12.406 12.16v0l66.329 166.438z" fill="#c5558d" fill-rule="nonzero" stroke="none" stroke-width="1" stroke-linecap="butt" stroke-linejoin="miter" stroke-miterlimit="10" stroke-dasharray="" stroke-dashoffset="0" font-family="none" font-weight="none" font-size="none" text-anchor="none" style="mix-blend-mode: normal" data-fill-palette-color="tertiary"></path></g></g><g transform="matrix(1,0,0,1,27.79071161048688,37.08)"><svg viewBox="0 0 339.9385767790262 173.04" height="173.04" width="339.9385767790262"><g><svg viewBox="0 0 339.9385767790262 173.04" height="173.04" width="339.9385767790262"><g><svg viewBox="0 0 339.9385767790262 173.04" height="173.04" width="339.9385767790262"><g><svg viewBox="0 0 339.9385767790262 173.04" height="173.04" width="339.9385767790262"><g id="textblocktransform"><svg viewBox="0 0 339.9385767790262 173.04" height="173.04" width="339.9385767790262" id="textblock"><g><svg viewBox="0 0 339.9385767790262 173.04" height="173.04" width="339.9385767790262"><g transform="matrix(1,0,0,1,0,0)"><svg width="339.9385767790262" viewBox="-3 -46.95 105.90476075776 54.400000000000006" height="173.04" data-palette-color="url(#69cee333-3b63-4a5a-b066-5bdc2a25e568)"></svg></g></svg></g></svg></g></svg></g></svg></g></svg></g></svg></g></svg></g><defs></defs><mask id="5c989cb6-28df-4088-8b84-c0cea46fc69f"><g id="SvgjsG1372"><svg viewBox="0 0 395.52 247.2" height="247.2" width="395.52"><g><svg></svg></g><g><svg viewBox="0 0 395.52 247.2" height="247.2" width="395.52"><mask id="SvgjsMask1371"><g transform="matrix(1,0,0,1,27.79071161048688,37.08)" id="SvgjsG1370"><svg viewBox="0 0 339.9385767790262 173.04" height="173.04" width="339.9385767790262"><g><svg viewBox="0 0 339.9385767790262 173.04" height="173.04" width="339.9385767790262"><g><svg viewBox="0 0 339.9385767790262 173.04" height="173.04" width="339.9385767790262"><g><svg viewBox="0 0 339.9385767790262 173.04" height="173.04" width="339.9385767790262"><g id="SvgjsG1369"><svg viewBox="0 0 339.9385767790262 173.04" height="173.04" width="339.9385767790262" id="SvgjsSvg1368"><g><svg viewBox="0 0 339.9385767790262 173.04" height="173.04" width="339.9385767790262"><g transform="matrix(1,0,0,1,0,0)"><svg width="339.9385767790262" viewBox="-3 -46.95 105.90476075776 54.400000000000006" height="173.04" data-palette-color="url(#69cee333-3b63-4a5a-b066-5bdc2a25e568)"></svg></g></svg></g></svg></g></svg></g></svg></g></svg></g></svg></g></mask><g mask="url(#b00df430-ef7f-458d-bc13-3113221dadfb)"><g></g></g><g transform="matrix(1,0,0,1,27.79071161048688,37.08)"><svg viewBox="0 0 339.9385767790262 173.04" height="173.04" width="339.9385767790262"><g><svg viewBox="0 0 339.9385767790262 173.04" height="173.04" width="339.9385767790262"><g><svg viewBox="0 0 339.9385767790262 173.04" height="173.04" width="339.9385767790262"><g><svg viewBox="0 0 339.9385767790262 173.04" height="173.04" width="339.9385767790262"><g id="SvgjsG1366"><svg viewBox="0 0 339.9385767790262 173.04" height="173.04" width="339.9385767790262" id="SvgjsSvg1365"><g><svg viewBox="0 0 339.9385767790262 173.04" height="173.04" width="339.9385767790262"><g transform="matrix(1,0,0,1,0,0)"><svg width="339.9385767790262" viewBox="-3 -46.95 105.90476075776 54.400000000000006" height="173.04" data-palette-color="url(#69cee333-3b63-4a5a-b066-5bdc2a25e568)"><path d="M26.15-10.5L26.15-37.55Q26.15-39.95 29.1-39.95L29.1-39.95Q32.05-39.95 32.05-37.55L32.05-37.55 32.05-3.05Q32.05-1.3 30.2-0.5L30.2-0.5 30.25-0.5Q29.45-0.15 28.55 0.05 27.65 0.25 26.8 0.25L26.8 0.25Q26.15 0.25 25.45 0.13 24.75 0 24.13-0.28 23.5-0.55 22.98-1.03 22.45-1.5 22.15-2.2L22.15-2.2 11.3-29.25 9.95-29.1 9.95-2.1Q9.95 0.3 6.95 0.3L6.95 0.3Q4 0.3 4-2.1L4-2.1 4-36.55Q4-38.6 5.8-39.3L5.8-39.3Q7.45-39.95 9.3-39.95L9.3-39.95Q10.6-39.95 11.93-39.43 13.25-38.9 13.95-37.45L13.95-37.45 24.75-10.35 26.15-10.5ZM63.65-1.2L52.65-34.8 41.7-1.2 41.7-1.25Q41.4-0.5 40.87-0.03 40.35 0.45 39.6 0.45L39.6 0.45Q39.2 0.45 38.82 0.38 38.45 0.3 38.05 0.2L38.05 0.2 38.1 0.2Q35.25-0.7 36-3L36-3 47.4-37.65Q47.65-38.45 48.27-39 48.9-39.55 49.75-39.65L49.75-39.65Q50.6-39.8 51.4-39.88 52.2-39.95 52.65-39.95L52.65-39.95Q53.1-39.95 53.9-39.88 54.7-39.8 55.55-39.7L55.55-39.7Q56.25-39.6 56.92-38.95 57.6-38.3 57.95-37.65L57.95-37.65Q60.75-29.05 63.62-20.33 66.5-11.6 69.3-3L69.3-3Q70-0.7 67.2 0.2L67.2 0.2Q66.8 0.3 66.47 0.38 66.15 0.45 65.75 0.45L65.75 0.45Q65.05 0.45 64.47-0.03 63.9-0.5 63.65-1.25L63.65-1.25 63.65-1.2ZM56.4-12L56.4-12Q56.4-10.4 55.27-9.28 54.15-8.15 52.55-8.15L52.55-8.15Q50.95-8.15 49.85-9.28 48.75-10.4 48.75-12L48.75-12Q48.75-13.6 49.85-14.73 50.95-15.85 52.55-15.85L52.55-15.85Q54.15-15.85 55.27-14.73 56.4-13.6 56.4-12ZM79.75-34.65L79.75-2.1Q79.75 0.3 76.8 0.3L76.8 0.3Q73.85 0.3 73.85-2.1L73.85-2.1 73.85-36.7Q73.85-37.85 74.5-38.78 75.15-39.7 77-39.7L77-39.7 94-39.7Q95.8-39.7 95.9-37.2L95.9-37.2Q96-34.65 94-34.65L94-34.65 79.75-34.65ZM92.55-20.65L92.55-20.65Q92.55-19.8 92.22-19.03 91.9-18.25 91.32-17.7 90.75-17.15 90-16.82 89.25-16.5 88.35-16.5L88.35-16.5Q86.65-16.5 85.45-17.7 84.25-18.9 84.25-20.65L84.25-20.65Q84.25-22.4 85.45-23.6 86.65-24.8 88.35-24.8L88.35-24.8Q89.25-24.8 90-24.48 90.75-24.15 91.32-23.58 91.9-23 92.22-22.25 92.55-21.5 92.55-20.65Z" opacity="1" transform="matrix(1,0,0,1,0,0)" fill="white" class="wordmark-text-0" id="SvgjsPath1364"></path></svg></g></svg></g></svg></g></svg></g></svg></g></svg></g></svg></g></svg></g><defs><mask></mask></defs></svg></g></mask><linearGradient x1="0" x2="1" y1="0.548" y2="0.55" id="69cee333-3b63-4a5a-b066-5bdc2a25e568"><stop stop-color="#ff6cab" offset="0"></stop><stop stop-color="#7366ff" offset="1"></stop></linearGradient><rect width="395.52" height="247.20000000000005" fill="url(#69cee333-3b63-4a5a-b066-5bdc2a25e568)" mask="url(#5c989cb6-28df-4088-8b84-c0cea46fc69f)" data-fill-palette-color="primary"></rect></svg><rect width="395.52" height="247.2" fill="none" stroke="none" visibility="hidden"></rect></g></svg></g></svg>